<svg width="40" height="40" viewBox="0 0 40 40" fill="none" xmlns="http://www.w3.org/2000/svg">
<rect width="40" height="40" rx="8" fill="#0A0A0A"/>
<path opacity="0.2" d="M30.6406 19.3738L22.2781 13.9926C22.1644 13.9201 22.0333 13.8796 21.8984 13.8754C21.7636 13.8712 21.6302 13.9034 21.5122 13.9686C21.3941 14.0339 21.2959 14.1298 21.2277 14.2462C21.1596 14.3626 21.1241 14.4952 21.125 14.6301V25.3738C21.1241 25.5087 21.1596 25.6413 21.2277 25.7577C21.2959 25.8741 21.3941 25.97 21.5122 26.0352C21.6302 26.1005 21.7636 26.1327 21.8984 26.1285C22.0333 26.1243 22.1644 26.0838 22.2781 26.0113L30.6406 20.6301C30.7472 20.5635 30.8351 20.4709 30.896 20.361C30.9569 20.2512 30.9889 20.1276 30.9889 20.0019C30.9889 19.8763 30.9569 19.7527 30.896 19.6428C30.8351 19.533 30.7472 19.4404 30.6406 19.3738ZM20.1406 19.3738L11.7781 13.9926C11.6644 13.9201 11.5332 13.8796 11.3984 13.8754C11.2636 13.8712 11.1302 13.9034 11.0121 13.9686C10.8941 14.0339 10.7958 14.1298 10.7277 14.2462C10.6596 14.3626 10.6241 14.4952 10.625 14.6301V25.3738C10.6241 25.5087 10.6596 25.6413 10.7277 25.7577C10.7958 25.8741 10.8941 25.97 11.0121 26.0352C11.1302 26.1005 11.2636 26.1327 11.3984 26.1285C11.5332 26.1243 11.6644 26.0838 11.7781 26.0113L20.1406 20.6301C20.2472 20.5635 20.3351 20.4709 20.396 20.361C20.4569 20.2512 20.4889 20.1276 20.4889 20.0019C20.4889 19.8763 20.4569 19.7527 20.396 19.6428C20.3351 19.533 20.2472 19.4404 20.1406 19.3738Z" fill="#FF8A2E"/>
<path d="M30.6406 19.3738L22.2781 13.9926C22.1644 13.9201 22.0333 13.8796 21.8984 13.8754C21.7636 13.8712 21.6302 13.9034 21.5122 13.9686C21.3941 14.0339 21.2959 14.1298 21.2277 14.2462C21.1596 14.3626 21.1241 14.4952 21.125 14.6301V25.3738C21.1241 25.5087 21.1596 25.6413 21.2277 25.7577C21.2959 25.8741 21.3941 25.97 21.5122 26.0352C21.6302 26.1005 21.7636 26.1327 21.8984 26.1285C22.0333 26.1243 22.1644 26.0838 22.2781 26.0113L30.6406 20.6301C30.7472 20.5635 30.8351 20.4709 30.896 20.361C30.9569 20.2512 30.9889 20.1276 30.9889 20.0019C30.9889 19.8763 30.9569 19.7527 30.896 19.6428C30.8351 19.533 30.7472 19.4404 30.6406 19.3738ZM20.1406 19.3738L11.7781 13.9926C11.6644 13.9201 11.5332 13.8796 11.3984 13.8754C11.2636 13.8712 11.1302 13.9034 11.0121 13.9686C10.8941 14.0339 10.7958 14.1298 10.7277 14.2462C10.6596 14.3626 10.6241 14.4952 10.625 14.6301V25.3738C10.6241 25.5087 10.6596 25.6413 10.7277 25.7577C10.7958 25.8741 10.8941 25.97 11.0121 26.0352C11.1302 26.1005 11.2636 26.1327 11.3984 26.1285C11.5332 26.1243 11.6644 26.0838 11.7781 26.0113L20.1406 20.6301C20.2472 20.5635 20.3351 20.4709 20.396 20.361C20.4569 20.2512 20.4889 20.1276 20.4889 20.0019C20.4889 19.8763 20.4569 19.7527 20.396 19.6428C20.3351 19.533 20.2472 19.4404 20.1406 19.3738Z" stroke="#FF8A2E" stroke-width="2" stroke-linecap="round" stroke-linejoin="round"/>
</svg>
