<svg width="40" height="40" viewBox="0 0 40 40" fill="none" xmlns="http://www.w3.org/2000/svg">
<rect width="40" height="40" rx="8" fill="#0A0A0A"/>
<path d="M29.7781 18.7163L16.2781 10.4757C16.0533 10.3332 15.7935 10.2552 15.5274 10.2503C15.2612 10.2453 14.9988 10.3136 14.7688 10.4476C14.5353 10.5756 14.3407 10.7643 14.2055 10.9936C14.0702 11.2229 13.9992 11.4845 14 11.7507V28.2507C13.9992 28.5169 14.0702 28.7785 14.2055 29.0078C14.3407 29.2372 14.5353 29.4258 14.7688 29.5538C14.9988 29.6878 15.2612 29.7561 15.5274 29.7511C15.7935 29.7462 16.0533 29.6682 16.2781 29.5257L29.7781 21.2851C29.9994 21.1516 30.1824 20.9632 30.3095 20.7382C30.4366 20.5132 30.5033 20.2591 30.5033 20.0007C30.5033 19.7423 30.4366 19.4883 30.3095 19.2632C30.1824 19.0382 29.9994 18.8498 29.7781 18.7163Z" fill="#FF8A2E"/>
</svg>
