<svg width="40" height="40" viewBox="0 0 40 40" fill="none" xmlns="http://www.w3.org/2000/svg">
<rect width="40" height="40" rx="8" fill="#0A0A0A"/>
<g opacity="0.3">
<path d="M10.2503 20.0015C10.2528 18.2121 10.9648 16.4966 12.2301 15.2313C13.4954 13.9659 15.2109 13.254 17.0003 13.2515H26.0003V11.7515C25.9999 11.6034 26.0432 11.4585 26.125 11.3351C26.2067 11.2116 26.3232 11.1151 26.4597 11.0577C26.5982 11.0037 26.7493 10.99 26.8952 11.0182C27.0412 11.0464 27.1762 11.1154 27.2847 11.2171L29.5347 13.4671C29.6755 13.6093 29.7545 13.8014 29.7545 14.0015C29.7545 14.2016 29.6755 14.3937 29.5347 14.5359L27.2847 16.7859C27.1408 16.9235 26.9495 17.0007 26.7503 17.0015C26.6508 17.001 26.5522 16.982 26.4597 16.9452C26.3232 16.8879 26.2067 16.7913 26.125 16.6679C26.0432 16.5444 25.9999 16.3995 26.0003 16.2515V14.7515H17.0003C15.6079 14.7515 14.2726 15.3046 13.288 16.2892C12.3034 17.2737 11.7503 18.6091 11.7503 20.0015C11.7503 20.2004 11.6713 20.3912 11.5306 20.5318C11.39 20.6725 11.1992 20.7515 11.0003 20.7515C10.8014 20.7515 10.6106 20.6725 10.47 20.5318C10.3293 20.3912 10.2503 20.2004 10.2503 20.0015ZM29.0003 19.2515C28.8014 19.2515 28.6106 19.3305 28.47 19.4712C28.3294 19.6118 28.2503 19.8026 28.2503 20.0015C28.2503 21.3939 27.6972 22.7292 26.7127 23.7138C25.7281 24.6984 24.3927 25.2515 23.0003 25.2515H14.0003V23.7515C14.0008 23.6034 13.9574 23.4585 13.8757 23.3351C13.7939 23.2116 13.6774 23.1151 13.5409 23.0577C13.4024 23.0037 13.2514 22.99 13.1054 23.0182C12.9594 23.0464 12.8244 23.1154 12.7159 23.2171L10.4659 25.4671C10.3251 25.6093 10.2461 25.8014 10.2461 26.0015C10.2461 26.2017 10.3251 26.3937 10.4659 26.5359L12.7159 28.7859C12.8599 28.9235 13.0512 29.0007 13.2503 29.0015C13.3499 29.001 13.4484 28.982 13.5409 28.9452C13.6774 28.8879 13.7939 28.7913 13.8757 28.6679C13.9574 28.5444 14.0008 28.3995 14.0003 28.2515V26.7515H23.0003C24.7897 26.749 26.5052 26.037 27.7705 24.7717C29.0359 23.5064 29.7478 21.7909 29.7503 20.0015C29.7503 19.8026 29.6713 19.6118 29.5306 19.4712C29.39 19.3305 29.1992 19.2515 29.0003 19.2515Z" fill="white"/>
</g>
</svg>
