<svg width="40" height="40" viewBox="0 0 40 40" fill="none" xmlns="http://www.w3.org/2000/svg">
<rect width="40" height="40" rx="8" fill="#0A0A0A"/>
<path opacity="0.2" d="M9.35896 19.3738L17.7214 13.9926C17.8352 13.9201 17.9664 13.8796 18.1012 13.8754C18.236 13.8712 18.3694 13.9034 18.4875 13.9686C18.6055 14.0339 18.7038 14.1298 18.7719 14.2462C18.84 14.3626 18.8755 14.4952 18.8746 14.6301V25.3738C18.8755 25.5087 18.84 25.6413 18.7719 25.7577C18.7038 25.8741 18.6055 25.97 18.4875 26.0352C18.3694 26.1005 18.236 26.1327 18.1012 26.1285C17.9664 26.1243 17.8352 26.0838 17.7214 26.0113L9.35896 20.6301C9.25241 20.5635 9.16454 20.4709 9.10362 20.361C9.04271 20.2512 9.01074 20.1276 9.01074 20.0019C9.01074 19.8763 9.04271 19.7527 9.10362 19.6428C9.16454 19.533 9.25241 19.4404 9.35896 19.3738ZM19.8589 19.3738L28.2214 13.9926C28.3352 13.9201 28.4664 13.8796 28.6012 13.8754C28.736 13.8712 28.8694 13.9034 28.9875 13.9686C29.1055 14.0339 29.2038 14.1298 29.2719 14.2462C29.34 14.3626 29.3755 14.4952 29.3746 14.6301V25.3738C29.3755 25.5087 29.34 25.6413 29.2719 25.7577C29.2038 25.8741 29.1055 25.97 28.9875 26.0352C28.8694 26.1005 28.736 26.1327 28.6012 26.1285C28.4664 26.1243 28.3352 26.0838 28.2214 26.0113L19.8589 20.6301C19.7524 20.5635 19.6645 20.4709 19.6036 20.361C19.5427 20.2512 19.5107 20.1276 19.5107 20.0019C19.5107 19.8763 19.5427 19.7527 19.6036 19.6428C19.6645 19.533 19.7524 19.4404 19.8589 19.3738Z" fill="#FF8A2E"/>
<path d="M9.35896 19.3738L17.7214 13.9926C17.8352 13.9201 17.9664 13.8796 18.1012 13.8754C18.236 13.8712 18.3694 13.9034 18.4875 13.9686C18.6055 14.0339 18.7038 14.1298 18.7719 14.2462C18.84 14.3626 18.8755 14.4952 18.8746 14.6301V25.3738C18.8755 25.5087 18.84 25.6413 18.7719 25.7577C18.7038 25.8741 18.6055 25.97 18.4875 26.0352C18.3694 26.1005 18.236 26.1327 18.1012 26.1285C17.9664 26.1243 17.8352 26.0838 17.7214 26.0113L9.35896 20.6301C9.25241 20.5635 9.16454 20.4709 9.10362 20.361C9.04271 20.2512 9.01074 20.1276 9.01074 20.0019C9.01074 19.8763 9.04271 19.7527 9.10362 19.6428C9.16454 19.533 9.25241 19.4404 9.35896 19.3738ZM19.8589 19.3738L28.2214 13.9926C28.3352 13.9201 28.4664 13.8796 28.6012 13.8754C28.736 13.8712 28.8694 13.9034 28.9875 13.9686C29.1055 14.0339 29.2038 14.1298 29.2719 14.2462C29.34 14.3626 29.3755 14.4952 29.3746 14.6301V25.3738C29.3755 25.5087 29.34 25.6413 29.2719 25.7577C29.2038 25.8741 29.1055 25.97 28.9875 26.0352C28.8694 26.1005 28.736 26.1327 28.6012 26.1285C28.4664 26.1243 28.3352 26.0838 28.2214 26.0113L19.8589 20.6301C19.7524 20.5635 19.6645 20.4709 19.6036 20.361C19.5427 20.2512 19.5107 20.1276 19.5107 20.0019C19.5107 19.8763 19.5427 19.7527 19.6036 19.6428C19.6645 19.533 19.7524 19.4404 19.8589 19.3738Z" stroke="#FF8A2E" stroke-width="2" stroke-linecap="round" stroke-linejoin="round"/>
</svg>
