<svg width="40" height="40" viewBox="0 0 40 40" fill="none" xmlns="http://www.w3.org/2000/svg">
<rect width="40" height="40" rx="8" fill="#0A0A0A"/>
<g opacity="0.3">
<path d="M30.2844 24.7171C30.4252 24.8593 30.5042 25.0514 30.5042 25.2515C30.5042 25.4517 30.4252 25.6437 30.2844 25.7859L28.0344 28.0359C27.8904 28.1735 27.6991 28.2507 27.5 28.2515C27.4005 28.251 27.3018 28.232 27.2094 28.1952C27.0729 28.1379 26.9564 28.0413 26.8747 27.9179C26.7929 27.7944 26.7495 27.6495 26.75 27.5015V26.0015C25.6896 25.9863 24.6475 25.7222 23.7079 25.2304C22.7683 24.7386 21.9574 24.033 21.3406 23.1702L17.4312 17.7046C16.9461 17.0252 16.3063 16.471 15.5645 16.0879C14.8227 15.7048 14.0005 15.5038 13.1656 15.5015H11C10.8011 15.5015 10.6103 15.4225 10.4697 15.2818C10.329 15.1412 10.25 14.9504 10.25 14.7515C10.25 14.5526 10.329 14.3618 10.4697 14.2212C10.6103 14.0805 10.8011 14.0015 11 14.0015H13.1656C14.2404 14.0034 15.2992 14.2612 16.2545 14.7535C17.2098 15.2458 18.0342 15.9585 18.6594 16.8327L22.5687 22.2984C23.0445 22.9674 23.6707 23.5154 24.3969 23.898C25.1232 24.2807 25.9292 24.4874 26.75 24.5015V23.0015C26.7495 22.8534 26.7929 22.7085 26.8747 22.5851C26.9564 22.4616 27.0729 22.3651 27.2094 22.3077C27.3479 22.2537 27.4989 22.24 27.6449 22.2682C27.7909 22.2964 27.9259 22.3654 28.0344 22.4671L30.2844 24.7171ZM21.4062 18.0327C21.4867 18.0904 21.5779 18.1315 21.6744 18.1538C21.7708 18.1761 21.8707 18.179 21.9684 18.1624C22.066 18.1458 22.1593 18.1101 22.2431 18.0573C22.3268 18.0045 22.3993 17.9356 22.4562 17.8546L22.5687 17.7046C23.0445 17.0355 23.6707 16.4877 24.3969 16.1049C25.1232 15.7223 25.9292 15.5156 26.75 15.5015V17.0015C26.7495 17.1495 26.7929 17.2944 26.8747 17.4179C26.9564 17.5413 27.0729 17.6379 27.2094 17.6952C27.3018 17.732 27.4005 17.751 27.5 17.7515C27.6991 17.7507 27.8904 17.6735 28.0344 17.5359L30.2844 15.2859C30.4252 15.1437 30.5042 14.9516 30.5042 14.7515C30.5042 14.5514 30.4252 14.3593 30.2844 14.2171L28.0344 11.9671C27.9259 11.8654 27.7909 11.7964 27.6449 11.7682C27.4989 11.74 27.3479 11.7537 27.2094 11.8077C27.0729 11.8651 26.9564 11.9616 26.8747 12.0851C26.7929 12.2085 26.7495 12.3534 26.75 12.5015V14.0015C25.6896 14.0167 24.6475 14.2808 23.7079 14.7726C22.7683 15.2643 21.9574 15.97 21.3406 16.8327L21.2375 16.9827C21.1794 17.0627 21.1376 17.1533 21.1147 17.2494C21.0917 17.3455 21.088 17.4453 21.1036 17.5428C21.1193 17.6404 21.1541 17.7339 21.206 17.818C21.258 17.9021 21.326 17.9751 21.4062 18.0327ZM18.5938 21.9702C18.5133 21.9126 18.4221 21.8715 18.3256 21.8492C18.2292 21.827 18.1293 21.8241 18.0316 21.8406C17.934 21.8571 17.8407 21.8928 17.7569 21.9457C17.6732 21.9985 17.6008 22.0674 17.5438 22.1484L17.4312 22.2984C16.9461 22.9778 16.3063 23.532 15.5645 23.9151C14.8227 24.2982 14.0005 24.4992 13.1656 24.5015H11C10.8011 24.5015 10.6103 24.5805 10.4697 24.7212C10.329 24.8618 10.25 25.0526 10.25 25.2515C10.25 25.4504 10.329 25.6412 10.4697 25.7818C10.6103 25.9225 10.8011 26.0015 11 26.0015H13.1656C14.2404 25.9996 15.2992 25.7418 16.2545 25.2495C17.2098 24.7572 18.0342 24.0444 18.6594 23.1702L18.7625 23.0202C18.8206 22.9403 18.8624 22.8497 18.8853 22.7535C18.9083 22.6575 18.912 22.5577 18.8964 22.4601C18.8807 22.3626 18.8459 22.2691 18.794 22.185C18.742 22.1009 18.674 22.0279 18.5938 21.9702Z" fill="white"/>
</g>
</svg>
